<svg xmlns="http://www.w3.org/2000/svg" viewBox="0 0 44.86 44.86"><defs><style>.cls-1{fill:#375e77;}.cls-2{fill:#fff;}</style></defs><title>blue-chevron</title><g id="Layer_2" data-name="Layer 2"><g id="Artwork"><path class="cls-1" d="M44.86,22.43A22.43,22.43,0,1,1,22.43,0,22.43,22.43,0,0,1,44.86,22.43"/><path class="cls-2" d="M23.85,31.67c-.73-.73-7.94-8.27-7.94-8.27a1.91,1.91,0,0,1,0-2.78s7.21-7.61,7.94-8.27a2,2,0,0,1,2.84,0,1.86,1.86,0,0,1,0,2.78L20.08,22l6.61,6.88a1.86,1.86,0,0,1,0,2.78A2,2,0,0,1,23.85,31.67Z"/></g></g></svg>