<svg xmlns="http://www.w3.org/2000/svg" viewBox="0 0 51.38 51.38"><defs><style>.cls-1{fill:#fff;}.cls-2{fill:#3f5564;}</style></defs><title>footer-twitter</title><g id="Layer_2" data-name="Layer 2"><g id="Artwork"><circle class="cls-1" cx="25.69" cy="25.69" r="25.69" transform="translate(-7.87 11.79) rotate(-22.5)"/><circle class="cls-2" cx="34.78" cy="16.74" r="2"/><path class="cls-2" d="M25.91,17.3a8.39,8.39,0,1,0,8.38,8.39A8.4,8.4,0,0,0,25.91,17.3Zm0,13.76a5.37,5.37,0,1,1,5.37-5.37A5.38,5.38,0,0,1,25.91,31.06Z"/><path class="cls-2" d="M32.56,42.71H19A10.24,10.24,0,0,1,8.75,32.48V18.89A10.23,10.23,0,0,1,19,8.67H32.56A10.23,10.23,0,0,1,42.79,18.89V32.48A10.24,10.24,0,0,1,32.56,42.71ZM19,11.87a7,7,0,0,0-7,7V32.48a7,7,0,0,0,7,7H32.56a7,7,0,0,0,7-7V18.89a7,7,0,0,0-7-7Z"/></g></g></svg>