<svg xmlns="http://www.w3.org/2000/svg" viewBox="0 0 51.24 51.24"><defs><style>.cls-1{fill:#fff;}.cls-2{fill:#3f5564;}</style></defs><title>footer-twitter_1</title><g id="Layer_2" data-name="Layer 2"><g id="Artwork"><circle class="cls-1" cx="25.62" cy="25.62" r="25.62"/><path class="cls-2" d="M20.72,36.35A15.32,15.32,0,0,0,36.14,20.93c0-.23,0-.46,0-.7a10.89,10.89,0,0,0,2.7-2.8,10.76,10.76,0,0,1-3.11.85,5.45,5.45,0,0,0,2.39-3,10.87,10.87,0,0,1-3.44,1.32,5.43,5.43,0,0,0-9.38,3.7,5.61,5.61,0,0,0,.14,1.24,15.39,15.39,0,0,1-11.17-5.66,5.43,5.43,0,0,0,1.68,7.23,5.41,5.41,0,0,1-2.46-.67v.06a5.43,5.43,0,0,0,4.35,5.32,5.55,5.55,0,0,1-1.43.19,5.69,5.69,0,0,1-1-.1,5.42,5.42,0,0,0,5.07,3.76A10.86,10.86,0,0,1,13.71,34a11.2,11.2,0,0,1-1.3-.07,15.41,15.41,0,0,0,8.31,2.43"/></g></g></svg>