<svg xmlns="http://www.w3.org/2000/svg" viewBox="0 0 51.24 51.24"><defs><style>.cls-1{fill:#fff;}.cls-2{fill:#3f5564;}</style></defs><title>footer-linkedin</title><g id="Layer_2" data-name="Layer 2"><g id="Artwork"><circle class="cls-1" cx="25.62" cy="25.62" r="25.62" transform="translate(-4.83 5.99) rotate(-12.19)"/><path class="cls-2" d="M12.13,20.94h5.79v18.6H12.13ZM15,11.7a3.35,3.35,0,1,1-3.36,3.35A3.36,3.36,0,0,1,15,11.7"/><path class="cls-2" d="M21.54,20.94h5.54v2.55h.08a6.06,6.06,0,0,1,5.47-3c5.85,0,6.94,3.85,6.94,8.86v10.2H33.79v-9c0-2.16,0-4.93-3-4.93s-3.46,2.35-3.46,4.77v9.2H21.54Z"/></g></g></svg>