<svg xmlns="http://www.w3.org/2000/svg" viewBox="0 0 1929.19 1115.23"><defs><style>.cls-1{fill:#b9c2c1;opacity:0.54;}.cls-2{opacity:0.03;}.cls-3{fill:#1d1d1b;}.cls-4{fill:none;}</style></defs><title>hatched-background</title><g id="Layer_2" data-name="Layer 2"><g id="Artwork"><rect class="cls-1" x="2.4" width="1926.79" height="1115.23"/><g class="cls-2"><path class="cls-3" d="M2.65,933.25v-45.7l12.74-8.25L2.65,870.59v-45.7l42.45,31a19,19,0,0,0,2.83-1.3c8.43-6.26,16.49-12.68,25.37-18.74,3.13-2.13,2.78-3.12,0-5.17C54.94,817.22,37,803.61,18.8,790.12c-5.08-3.77-10.75-7.3-16.15-10.94v-45.7a27.39,27.39,0,0,1,3.83,1.95c16.26,12.19,32.39,24.43,48.7,36.61,14.07,10.5,28.31,20.94,42.51,31.39,3.1,2.28,6.37,4.49,9.93,7,9.61-7.21,18.23-14,27.62-20.49,2.95-2,2.63-3.24.2-5q-20.11-14.79-40-29.64c-22.84-17-45.59-34-68.51-50.93C19,698.49,10.75,692.79,2.65,687v-45.7c5.33,3.72,10.87,7.37,16,11.18C41,669.2,63.22,686,85.6,702.64c19.1,14.24,38.36,28.43,57.54,42.63,8.58,6.36,17.18,12.7,26.15,19.33,7.79-5.85,15.09-11.33,22.35-16.81,8.21-6.18,8.37-6.25-.09-12.62Q148,702.38,104.16,669.69q-36.36-27.12-73-54.13c-9.39-6.93-19-13.79-28.5-20.68v-45c4.89,3.29,10.23,6.43,14.57,9.92,5.43,4.36,11,8.6,17.19,12.7,11.93,7.86,22.44,16.35,33.47,24.61,22.34,16.71,44.57,33.48,67,50.17,22.81,17,45.78,33.94,68.66,50.9,9,6.64,17.92,13.29,27.43,20.35,10.14-7.44,19.82-14.4,29.05-21.53,1-.79.16-2.87-1.12-3.86-7.7-6-15.81-11.79-23.71-17.69Q194,644.85,153,614.2c-26.95-20-54.09-40-80.94-60.08-7.37-5.51-13.57-11.48-21-17-9.32-6.91-19.33-13.54-29-20.29q-9.66-6.71-19.34-13.39v-45.7a14.78,14.78,0,0,1,2.49,1.17C20.73,470.49,36.36,482,51.8,493.62,66.3,504.51,80.46,515.53,95,526.38c7,5.23,14.86,10.13,21.92,15.34,16,11.83,31.76,23.78,47.65,35.66,21.16,15.83,41.84,31.85,63.71,47.39,19,13.54,35.51,28.07,55.72,41.14,3,1.93,5.39,4.13,8.15,6.28a16.15,16.15,0,0,0,2.73-1.05c8.81-6.45,17.54-12.93,26.33-19.38,2.44-1.79,1.47-3.2-.83-4.89-18.74-13.79-37.31-27.64-55.91-41.49Q233.23,582.1,202,558.81q-40.62-30.19-81.29-60.36c-5.67-4.21-11.27-8.45-17-12.66Q69,460.06,34.27,434.36c-10.45-7.72-21.08-15.36-31.62-23v-45a38.68,38.68,0,0,1,4.59,2.48C28,384.24,48.6,399.69,69.33,415.1c23.12,17.18,46.44,34.28,69.44,51.51,10.76,8.06,20.76,16.42,31.51,24.49,6.85,5.13,14.72,9.86,21.65,15,20.84,15.36,41.43,30.82,62.14,46.23q40.2,29.91,80.42,59.79c6.42,4.77,12.92,9.5,20.13,14.78L772.15,316.54l417.51,310.29,417.49-310.28c14.6,11,28.38,21.47,42.41,31.86q60.92,45.16,122,90.27,51,37.83,101.78,75.78c7.7,5.76,14.18,12,22,17.71,7.45,5.41,16,10.37,24,15.53v45.71a32.14,32.14,0,0,1-3.85-2c-15.17-11-29.56-22.24-44.68-33.23-30.78-22.39-60.66-45.14-90.93-67.73q-31.2-23.28-62.44-46.55-40.24-29.87-80.64-59.68c-9.76-7.23-19.44-14.5-29.74-22.19L1220.28,649.55,1251,672.41c1.93-1.22,3.44-2,4.7-3q25.85-19.09,51.62-38.21,31.58-23.43,63.07-46.89c9.88-7.36,19-15,29.61-22.09,10.36-6.93,18.43-14.89,31.29-20.72.42-.19-.08-.89.12-1.31.43-.89.63-2,1.66-2.6a96.66,96.66,0,0,0,12.48-8.84c3.66-3.25,8.17-6.38,12.25-9.61,10.51-8.3,21.79-16.32,32.78-24.46q40.29-29.83,80.58-59.68,17.85-13.23,35.58-26.48c14.27,8.55,23.85,18.69,37.6,27.19,6.24,3.87,11.2,8.33,16.77,12.51,19.56,14.68,39.06,29.37,58.73,44q51.27,38.13,102.72,76.16c6.13,4.55,12.37,9.07,18.48,13.63,15.94,11.89,31.77,23.82,47.79,35.68,10,7.43,20.36,14.76,30.54,22.14v45c-4.61-3-9.5-5.94-13.78-9.1q-34.24-25.28-68.17-50.66c-16-12-31.35-24.2-47.4-36.15-12.86-9.59-26.53-18.86-39.5-28.41-20.85-15.34-41.43-30.78-62.1-46.19q-32.06-23.86-64.09-47.75c-5.49-4.08-11.22-8.07-17.43-12.52L1282.07,695.49l31.13,23.12c98.25-73,195.86-145.57,293.94-218.45,10.7,8,20.75,15.6,30.9,23.15,28.25,21,56.65,41.92,84.77,63,7.3,5.47,13.47,11.38,20.75,16.86,4.68,3.52,10.83,6.46,15.61,10,15.36,11.21,30.37,22.56,45.55,33.85q47,34.9,93.87,69.84c2.26,1.69,2.74,1.64,4.91-.06,5-3.88,10.56-7.52,15.89-11.26v45.71a31,31,0,0,0-3.19,1.81c-10.83,8.08-21.52,16.21-32.41,24.26-30.22,22.34-60.62,44.61-90.74,67-26.55,19.74-52.75,39.61-79.24,59.38-23.07,17.2-46.33,34.34-69.52,51.5l-37.19,27.47L772.06,362c-14.07,10.49-27.21,20.32-40.42,30.12q-38.05,28.26-76.18,56.48c-20.93,15.5-42,31-62.81,46.49-28.11,21-56,42-84.12,63S452.14,599.89,424,620.79c-27.6,20.51-55,41.09-82.65,61.58-25.29,18.76-50.9,37.39-76.14,56.17-29.29,21.79-58.27,43.71-87.52,65.52-22.93,17.1-46.13,34.09-69.12,51.16Q63.39,888.79,18.31,922.4c-5,3.71-10.43,7.24-15.66,10.85M1607.12,592.06l232,172.39c10.44-7.64,20.35-14.81,30-22.1.65-.5-.33-2-1.3-2.68-24.84-18.48-49.86-36.88-74.67-55.37-29.4-21.9-58.6-43.9-88-65.81q-35-26.12-70.3-52.14c-9.06-6.72-18.15-13.42-27.77-20.53-15.12,11.24-29.64,22-44.14,32.83q-41.58,30.95-83.16,61.9c-21.17,15.7-42.61,31.3-63.79,47-23,17.06-45.79,34.21-68.89,51.24-2.86,2.11-2.32,3.59.28,5.43,3.93,2.8,7.52,5.73,11.4,8.55,5.29,3.83,10.71,7.62,16.38,11.64l232-172.35m0,45.61c-9.78,7.25-18.76,13.89-27.68,20.54q-41.49,30.94-83,61.9c-26.83,19.95-53.84,39.84-80.65,59.8-10,7.44-9.95,7.54,0,15.07,6.71,5.1,13.78,10.06,21.13,15.4l170.2-126.47,170.27,126.52,31.19-23.06-201.45-149.7M1498.66,856.34l108.46-80.53,107.8,80.07a11.88,11.88,0,0,0,2.33-.7c9.15-6.73,18.38-13.43,27.17-20.29,1-.8.36-2.83-.88-3.78-12.82-9.8-25.89-19.51-38.94-29.22q-31.86-23.73-63.78-47.42c-11.06-8.2-22.19-16.38-33.74-24.9-10.92,8.09-21.37,15.8-31.76,23.54q-31.46,23.4-62.87,46.82c-14,10.4-28.22,20.73-42.07,31.2-1.26.94-1.7,3.07-.6,3.92,9.16,7,18.78,13.92,28.88,21.29m109-34.49a10.07,10.07,0,0,0-1.93.52c-24.77,18.34-49.56,36.68-74.09,55.11-1.1.82-.63,2.83.5,3.83,3.36,3,7.34,5.78,11.21,8.6,5.54,4,11.19,8,17.19,12.29l46.53-34.48,46.77,34.58c9.58-7.08,18-13.65,27.19-19.92,3.84-2.62,2.59-4.37-.51-6.64-16-11.72-31.82-23.5-47.7-35.26l-25.16-18.63m-.49,91.51c-5.33,3.8-10,7-14.39,10.39a1.72,1.72,0,0,0,.06,2.57c4.51,3.6,9.34,7.07,14.37,10.81,4.91-3.8,9.51-7.21,13.75-10.76a1.8,1.8,0,0,0,0-2.66c-4.23-3.4-8.82-6.68-13.76-10.35"/><path class="cls-3" d="M1919.39,272V317.7c-8.52-6.06-17.25-12-25.55-18.18-20.65-15.28-41.08-30.65-61.64-46q-38.37-28.58-76.8-57.12c-7.4-5.5-14.81-11-22.49-16.37-1.08-.75-5.15-1.4-5.48-1.15-9.84,7.18-19.38,14.49-28.88,21.7L1753,241.15q30.68,22.82,61.32,45.64,38.16,28.4,76.37,56.77c9.37,6.93,19.1,13.72,28.66,20.58v45.71c-1.79-1.22-3.65-2.4-5.36-3.65-21.3-15.66-42.69-31.28-63.84-47-22.58-16.77-44.86-33.65-67.39-50.43q-40.17-29.92-80.53-59.77c-11.18-8.29-22.4-16.57-34.41-25.45l-31.22,22.84c3.29,2.51,6.31,4.91,9.48,7.25,28.13,20.78,56.4,41.49,84.39,62.32,29.26,21.77,58.19,43.68,87.41,65.48q42.66,31.82,85.66,63.52c5,3.65,10.52,7.06,15.81,10.58v45.71a19.8,19.8,0,0,1-3.54-1.54q-16.53-12.18-32.91-24.42-47.84-35.7-95.65-71.4c-29.7-22.1-59.57-44.14-89.31-66.23q-39.43-29.31-78.75-58.66c-4.25-3.16-8.71-6.24-13.46-9.64-7.91,5.93-15.07,11.35-22.3,16.73q-43.58,32.41-87.21,64.8c-28.07,20.8-56.36,41.51-84.37,62.32-26.54,19.73-52.78,39.57-79.28,59.31q-44.68,33.32-89.6,66.55c-16.63,12.37-33.16,24.78-49.81,37.14-4.65,3.45-5.16,3.39-10.21-.38-20.41-15.24-40.77-30.51-61.26-45.72-26-19.34-52.26-38.61-78.26-58C1017,452.4,990.72,432.54,964.2,412.8c-29.57-22-59.4-43.92-89-65.91q-45.78-34-91.39-68.1c-4.12-3.06-8.42-6-13.14-9.41L353.34,579.53c-1.88-1.49-2.8-2.26-3.8-3-22.91-17-45.89-33.91-68.74-50.91-20.71-15.42-41.23-30.91-62-46.33q-35.26-26.24-70.72-52.38Q117.15,404,86.2,381C63.45,364.11,40.84,347.15,18,330.26c-4.82-3.57-10.24-6.91-15.37-10.35V273.47c1,.66,2,1.31,3,2Q45.48,305.23,85.35,335c30,22.3,60.14,44.53,90.16,66.82,24.71,18.35,49.29,36.74,74,55.1q40.82,30.33,81.73,60.63c7.22,5.36,14.56,10.68,22.08,16.18,1.71-1.13,2.88-1.83,3.92-2.6q31.16-23.08,62.27-46.19t62.29-46.26q34-25.32,68-50.66,31.51-23.43,63-46.85l67.71-50.33c19.14-14.23,38.34-28.44,57.31-42.74a2.26,2.26,0,0,0-.17-3.35c-5.93-4.71-12.25-9.28-18.5-13.88-3.22-2.36-6.57-4.68-10.54-7.5l-354.79,264a24.89,24.89,0,0,1-3-1.47Q310,455.65,269.25,425.39q-46.53-34.62-92.87-69.31-36.18-27-72.42-53.92-38.83-28.86-77.8-57.68c-7.65-5.65-15.66-11.15-23.51-16.72V173.21c5.77-4.12,11.65-8.2,17.29-12.37Q70.8,123.25,121.57,85.6C145.65,67.76,169.81,50,193.79,32.07c12-8.92,23.66-18,35.48-26.94h61.44c-4,3.08-7.66,6.26-11.95,9.2-2.61,1.78-2.53,3.14-.17,4.88q26,19.23,52,38.52c7.5,5.55,15.07,11.09,22.9,16.85L430.9,17,416.31,5.13h61.43a21.6,21.6,0,0,0,2.52,2.55c10.26,7.66,20.6,15.29,30.89,22.94Q552.54,61.4,593.9,92.18c32.05,23.75,64.29,47.42,96.29,71.19C712.75,180.13,735,197,757.5,213.81q38.16,28.44,76.52,56.81,37.65,28,75.28,56c21.19,15.71,42.57,31.35,63.74,47.07,22.59,16.77,45,33.62,67.54,50.41q34.25,25.5,68.59,51c25.1,18.65,50.28,37.26,75.2,56,3.45,2.59,5.16,2.18,8.16-.11,9.33-7.12,19-14.13,28.47-21.17,17.08-12.66,34.21-25.29,51.23-38,22.42-16.7,44.73-33.44,67.15-50.14,26.78-19.95,53.49-39.93,80.49-59.79,22-16.16,44.44-32.14,66.48-48.28,6.74-4.94,12.68-10.2,19.22-15.22,2.16-1.66,5.43-2.9,7.59-4.56,4.06-3.14,7.37-6.58,11.59-9.65,5.86-4.29,12.64-8.21,18.35-12.54,8.81-6.67,16.72-13.68,25.58-20.33,25.24-18.92,50.81-37.72,76.18-56.59,25.07-18.66,50-37.37,75.08-56,22.72-16.89,45.61-33.69,68.36-50.56q42.27-31.35,84.4-62.74c8.93-6.67,17.49-13.49,26.22-20.23h20.47V42l-5.1-1.84c-9.72,7.18-19.4,14.24-28.81,21.42-.73.55,0,2,.85,2.75q7.51,6,15.51,11.82c5.71,4.15,11.69,8.2,17.55,12.29v45.71a35.51,35.51,0,0,1-4-2.37c-8.45-6.7-16.5-13.56-25.29-20.12-6.93-5.17-14.89-9.94-22.14-15-5-3.5-9.61-7.17-14.76-11-9.74,7.2-18.65,14-28.13,20.66-3.4,2.38-1.22,3.92,1,5.61q29.54,22,59.22,43.86c11.28,8.31,22.71,16.56,34.07,24.84v45.71a39.09,39.09,0,0,1-3.7-2.13c-11.83-8.83-23.55-17.7-35.4-26.52q-31.47-23.43-63.06-46.82c-8.51-6.32-16.94-12.67-25.87-19.35l-31,23.09c16.56,12.43,32.86,24.74,49.32,37q46.88,34.91,93.95,69.73c5,3.68,10.51,7.14,15.79,10.7M353.24,442c9-6.52,17.54-12.58,25.82-18.73,22.84-17,45.44-34,68.41-50.94,8-5.93,17.26-11.41,25.28-17.35,8.6-6.4,16.3-13.13,24.58-19.65,6-4.7,12.15-9.31,18.36-13.91,5.07-3.75,10.22-7.47,15.51-11.13s11.47-7.3,16.55-11.2c10-7.72,19.21-15.76,29.43-23.41,30.78-23,61.93-45.9,92.84-68.87,8.35-6.2,8.33-6.29.07-12.51-7.26-5.46-14.81-10.82-22.9-16.71l-294,218.09L59.52,177.42,28.43,200.56,353.24,442M585.42,131.48l-232,172.43L121.31,131.47l-31.1,23.16q131.6,97.79,263.16,195.58L616.56,154.6l-31.14-23.12m-232,80.6L183.71,86a28.06,28.06,0,0,0-3.93,1.86q-8.72,6.48-17.2,13c-3.32,2.56-8.93,5.21-8.93,7.82s5.55,5.27,8.94,7.8q41.41,30.94,82.95,61.85,46.36,34.47,92.87,68.89c4.94,3.65,10,7.27,15.09,11l50.88-37.85q31.26-23.27,62.52-46.54C493.58,154,520.39,134.27,547,114.42c7.6-5.68,7.47-5.85-.16-11.66-7.46-5.7-15.25-11.26-23.37-17.22l-170,126.54M244.94,39.61c-10.2,7.59-19.83,14.63-29.06,21.82-1,.74-.36,2.65.8,3.53,15,11.33,30.33,22.57,45.53,33.84q38.1,28.24,76.16,56.52c4.83,3.58,9.73,7.13,15.12,11.07L493,62.73,461.81,39.62,353.37,120.17,244.94,39.61"/><rect class="cls-4" x="2.65" y="5.13" width="1916.75" height="1104.59"/><path class="cls-3" d="M2.65,979c5.31-3.5,10.94-6.88,15.87-10.53,22.94-16.95,45.68-34,68.52-51q37.41-27.83,74.87-55.65c22.87-17,45.83-33.94,68.67-50.94,27.86-20.72,55.58-41.49,83.45-62.21,26.68-19.83,53.5-39.6,80.2-59.43q41.43-30.76,82.75-61.57c23-17.08,46.1-34.12,69-51.21,22.41-16.69,44.63-33.45,67.05-50.12,21.13-15.73,42.46-31.37,63.64-47.08,10.86-8,21.58-16.14,32.4-24.2q13.29-9.87,26.64-19.73L772.1,408.4,1607,1028.8c10.32-7.5,20.08-14.47,29.58-21.54,21.11-15.71,42.06-31.48,63.14-47.2s42-31.22,63-46.82q34.73-25.75,69.48-51.5,37.45-27.82,74.84-55.66c3.91-2.91,8.22-5.65,12.34-8.47v45.71c-5.26,3.57-10.77,7-15.75,10.72q-47.13,34.85-94,69.77-60.3,44.94-120.42,90-38.73,28.9-77.63,57.73c-1.16.86-3.1,1.42-5.29,2.39-6-4.45-12.35-9.22-18.77-14-29.54-21.88-59.22-43.71-88.57-65.66-14-10.49-27.09-21.35-41.16-31.81-18.35-13.65-37.41-27-55.9-40.62-24.2-17.79-48.15-35.68-72.2-53.53q-34.11-25.29-68.19-50.61C1239,800.89,1216.58,784,1194,767.24c-25.12-18.67-50.44-37.25-75.57-55.91-25.36-18.84-50.54-37.75-75.89-56.58s-50.68-37.44-75.91-56.21c-22.58-16.79-44.88-33.68-67.49-50.46-28-20.8-56.3-41.53-84.4-62.32-13-9.6-25.89-19.22-38.61-28.92-3.11-2.38-4.54-2.65-8.06,0-30.8,23-62,45.89-92.91,68.87C643.35,549.34,611.8,573.1,580,596.75c-33.68,25-67.65,50-101.3,75-40.24,30-80.17,60-120.44,90-32.09,23.86-64.59,47.57-96.69,71.43-33.38,24.82-66.45,49.76-99.74,74.62q-19.17,14.33-38.74,28.5c-4,2.91-9.26,5.34-13.17,8.29-6.08,4.62-11.13,9.63-17.31,14.21s-13.58,8.87-20,13.45c-3.07,2.19-4.9,4.87-7.81,7.13q-10.24,8-21,15.72c-5.49,3.93-11.73,7.55-17,11.55-7,5.31-13.4,10.85-20.13,16.27a44.52,44.52,0,0,1-3.91,2.5Z"/><path class="cls-3" d="M2.65,1071.11c5.3-3.55,10.89-7,15.85-10.66,21.16-15.7,42.08-31.49,63.17-47.22s42.17-31.44,63.47-47.08c9.46-6.94,19.64-13.61,29.11-20.55,7.05-5.16,13.29-10.63,20.21-15.84q34.81-26.21,69.88-52.32c22.83-17,45.84-34,68.73-50.93q36.29-26.93,72.51-53.86,45.82-34,91.68-68c31.69-23.57,63.22-47.2,94.92-70.76C626,608.75,660,583.69,693.8,558.55,719,539.8,744,521,769.14,502.19c.66-.49,1.4-1,2.94-2l819.75,609.26c-20.43,0-39.67.1-58.9-.12-2.21,0-4.88-1.56-6.46-2.73-21.45-15.89-42.7-31.86-64.1-47.77-21.93-16.31-44.07-32.53-65.91-48.88-5.59-4.18-10-8.85-15.64-13-16.54-12-33.73-23.78-50.19-35.83-20.26-14.84-39.91-29.91-60.06-44.79-24.71-18.26-49.84-36.34-74.46-54.64-26.61-19.77-52.75-39.72-79.23-59.53-22.75-17-45.74-33.94-68.57-50.94-21-15.6-41.77-31.27-62.77-46.86-26.83-19.92-53.84-39.78-80.67-59.69q-41.43-30.76-82.69-61.59c-15.41-11.5-30.74-23-46.14-34.53-1.06-.78-2.43-1.44-4.23-2.49l-20.27,15Q695,603,638.5,645c-33.38,24.85-66.53,49.77-99.87,74.63-19,14.17-37.58,28.49-57.45,42.28a251.27,251.27,0,0,0-20.6,15.37C449.81,786.47,437,795,424.8,803.76c-6.5,4.66-13.91,9-20.21,13.68-10,7.5-19.18,15.31-29.09,22.84-17.05,13-34.36,25.82-51.64,38.68q-37.58,28-75.25,55.93c-22.75,16.88-45.57,33.72-68.25,50.63-22.52,16.78-44.84,33.65-67.4,50.42-23.76,17.68-47.72,35.28-71.57,52.93-7,5.2-14.38,10.27-20.78,15.69-4.44,3.76-9.54,5.85-18,4.88Z"/><rect class="cls-4" x="2.65" y="5.13" width="1916.75" height="1104.59"/><path class="cls-3" d="M1837.48,5.13q-52.93,39.27-105.87,78.56-59.23,44-118.37,88.05-37.21,27.7-74.39,55.42-44.55,33.12-89.28,66.18c-9.29,6.83-19.58,13.28-28.75,20.17-10.52,7.9-20.06,16.17-30.5,24.11-5.79,4.39-12.7,8.35-18.76,12.65-2.37,1.68-3.49,3.88-5.76,5.62-7.27,5.54-14.72,11-22.27,16.45-4.94,3.57-10.43,6.92-15.23,10.53-9,6.75-17.48,13.68-26.5,20.42-23,17.2-46.29,34.32-69.39,51.5-14.5,10.78-28.86,21.62-44,32.95-6.57-5-12.68-9.65-19-14.28-25.47-18.81-51.07-37.57-76.47-56.41-20.35-15.09-40.41-30.31-60.74-45.42-30.24-22.46-60.7-44.83-90.89-67.31C908,279.48,875,254.51,841.57,229.69c-32.1-23.86-64.58-47.57-96.72-71.42-31.86-23.65-63.47-47.4-95.27-71.08C637.72,78.35,625,69.85,613.79,60.77,590.32,41.66,563,24.07,539.17,5.13h61.44q293.65,218.33,587.8,437c16.26-12.18,31.52-23.85,47.25-35.33,11.85-8.65,24.56-17,36.39-25.63,6.35-4.64,11.24-9.87,17.52-14.55,34.28-25.53,68.83-50.95,103.19-76.45,20.36-15.1,40.47-30.31,60.83-45.42,21.3-15.8,42.83-31.52,64.15-47.32,18.5-13.72,36.79-27.51,55.27-41.24,21.15-15.71,42.47-31.35,63.58-47.07,22.4-16.68,44.58-33.46,67-50.14q36.17-27,72.51-53.88Z"/><path class="cls-3" d="M1714.61,5.13c-8.85,6.42-17.8,12.8-26.54,19.27q-45.71,33.83-91.28,67.7c-33.36,24.85-66.45,49.81-99.87,74.64-32.12,23.87-64.62,47.59-96.73,71.47-33.4,24.83-66.42,49.81-99.83,74.64-32.12,23.87-64.53,47.63-96.8,71.44-4.25,3.14-8.8,6.17-12.57,9.46-2.54,2.24-3.19,1.47-5.33-.13-20.15-15-40.51-30-60.75-45q-34.15-25.32-68.19-50.69c-22.42-16.7-44.74-33.44-67.22-50.12-21.31-15.81-42.83-31.55-64.15-47.36q-37.49-27.81-74.79-55.68c-25.18-18.77-50.26-37.57-75.5-56.31-22.47-16.68-45.24-33.25-67.59-50-8.41-6.3-15.63-13.06-24.07-19.35-6.58-4.89-14.2-9.36-21.36-14h61.44C729,9.09,734.66,13,740.06,17c16.78,12.46,33.4,25,50.18,37.44,22.75,16.88,45.66,33.71,68.38,50.6,31.81,23.66,63.46,47.38,95.27,71q44.37,33,88.95,65.89,32.34,24,64.6,47.95c21,15.62,41.76,31.3,62.71,46.93,5.74,4.28,11.74,8.45,18,12.94,1.34-.77,2.13-1.15,2.73-1.59l28.19-20.88q27.75-20.56,55.52-41.11,31.58-23.43,63.11-46.87,33.65-25,67.21-50.07c21.16-15.71,42.46-31.37,63.62-47.09q34-25.29,68-50.64c21.2-15.82,42.29-31.69,63.59-47.48,17.58-13,35.39-26,53.1-38.95Z"/><path class="cls-3" d="M1590.38,5.13c-20.07,14.93-40,29.91-60.27,44.77-6.47,4.74-14.06,9-20.65,13.73-3.74,2.66-6.31,5.79-9.78,8.57-2.47,2-5.57,3.74-8.41,5.58-.86.56-2,1-2.68,1.63-5.18,4.29-9.93,8.75-15.53,12.87-6.84,5-14.8,9.62-21.51,14.69-14.6,11-28.4,22.36-43.06,33.37-29.67,22.26-59.7,44.38-89.58,66.57q-37.47,27.81-74.93,55.64-27.11,20.18-54.12,40.38a10.07,10.07,0,0,1-1.95.45c-5.87-4.22-12-8.49-17.82-12.86-21.09-15.73-42-31.52-63.16-47.24s-42.56-31.58-63.85-47.36q-40.29-29.88-80.56-59.75c-25.2-18.74-50.22-37.55-75.42-56.29s-50.6-37.49-75.9-56.24L786.28,5.13h61.43l28.52,21.18,74,55.06q38.4,28.57,76.8,57.16,37.42,27.83,74.89,55.62,34.47,25.62,68.91,51.26c5.7,4.24,11.49,8.44,17.61,12.93,13.65-10.19,26.61-19.89,39.64-29.57,21.16-15.68,42.29-31.37,63.6-47,5-3.64,10.87-6.89,15.78-10.53,4.41-3.27,7.84-6.94,12.11-10.27,2.45-1.91,6.08-3.38,8.56-5.29,4.2-3.24,7.54-6.81,11.92-10,7.49-5.4,15.86-10.46,23.19-15.93s13.26-11.24,20.41-16.65c12.89-9.77,26.3-19.34,39.34-29q53-39.47,105.92-79Z"/><path class="cls-3" d="M1466.15,5.13c-10.67,8.1-21.26,16.22-32,24.28q-33.9,25.38-68,50.69c-25.41,18.84-51,37.58-76.44,56.42-20.63,15.3-41.08,30.68-61.62,46l-37.58,28.05c-.47.35-1,.67-2.11,1.38-7.75-5.67-15.18-11.05-22.49-16.46q-38.48-28.53-76.9-57.1c-20.83-15.5-41.52-31.07-62.37-46.58q-44.37-33-88.86-66C928.55,19,919.59,12,910.51,5.13h61.43c1.31,1.11,2.51,2.26,3.94,3.33,14,10.39,28.21,20.74,42.19,31.16,22.52,16.79,44.87,33.65,67.4,50.44Q1125.63,120,1166,149.83c7.22,5.35,14.47,10.69,22.5,16.62,6.91-5.21,13.07-9.92,19.34-14.58q44.64-33.12,89.31-66.21,40.07-29.74,80.05-59.51c9.32-7,18.39-14,27.56-21Z"/><path class="cls-3" d="M1919.39,934.73c-11.35,8.27-22.67,16.56-34.08,24.81-8.6,6.22-17.54,12.31-26,18.61-13.69,10.24-26.93,20.66-40.63,30.89-26.06,19.46-52.32,38.84-78.46,58.27-18.1,13.44-36.11,26.91-54.29,40.33a10.08,10.08,0,0,1-5.07,1.72c-18.86.13-37.73.08-58,.08,3.86-3.1,7-5.81,10.45-8.39,32.2-23.81,64.58-47.56,96.69-71.42,36-26.78,71.85-53.65,107.82-80.46q39.3-29.31,78.75-58.55a27.59,27.59,0,0,1,2.81-1.6Z"/><path class="cls-3" d="M1343.28,5.13l-154.8,115-7.12-5.33Q1142.53,85.89,1103.69,57c-22.47-16.67-45-33.3-67.53-50a6.82,6.82,0,0,1-1.42-1.93h61.44a12.18,12.18,0,0,0,2.12,2.54c6.11,4.62,12.36,9.2,18.55,13.79C1139.39,38.24,1162,55,1184.36,71.84c3.67,2.77,5.65,1.7,8.21-.21l20.52-15.29,68.75-51.21Z"/><path class="cls-3" d="M1919.39,1026.88c-5.25,3.6-10.74,7.12-15.74,10.83q-45.56,33.87-90.84,67.85c-3.69,2.78-7.35,4.13-14.1,4-17-.35-34-.12-52.69-.12,5.82-4.31,10.78-8,15.68-11.62q52.53-39.21,105-78.42c16.63-12.39,33.45-24.69,50.22-37a17.06,17.06,0,0,1,2.42-1.21Z"/><path class="cls-3" d="M166.47,5.13c-5.83,4.67-11.43,9.43-17.54,14C129.05,34,109,48.71,89,63.51q-43.2,32-86.37,64V81.06a29.78,29.78,0,0,0,4.23-2.12Q49.42,47.47,91.81,16c4.69-3.5,8.83-7.21,13.23-10.82Z"/><path class="cls-3" d="M1919.39,1109.44h-49.81c12.31-9.15,23.77-17.76,35.41-26.29,4.59-3.36,9.59-6.56,14.4-9.83Z"/><path class="cls-3" d="M1219,5.13l-30.59,23.41L1157.61,5.13Z"/><path class="cls-3" d="M383.54,5.13c-6,4.73-12,9.49-18.12,14.2-3.72,2.87-7.62,5.67-12,8.94L322.11,5.13Z"/><path class="cls-3" d="M43.6,5.13,2.65,35.35V5.13Z"/><path class="cls-3" d="M76,1109.44c18.81-14,36.81-27.47,54.86-40.9q31.89-23.71,63.85-47.39Q239.3,988,283.87,954.87c26.61-19.82,53-39.72,79.71-59.52,28-20.81,56.36-41.51,84.4-62.31s55.79-41.73,83.87-62.52c8.48-6.28,17.86-12.21,26.41-18.46,5.73-4.2,10.46-8.8,16.14-13,6-4.46,12.8-8.61,18.84-13.06,5-3.67,9-7.71,14-11.35,7.3-5.29,15.54-10.21,22.65-15.58,14.88-11.22,29-22.73,43.93-33.94,22.65-17.06,45.7-34,68.56-51,9.76-7.25,19.48-14.53,29.66-22.13l696.11,517.43h-27.71c-9.55,0-19.12.15-28.65-.09-2.63-.07-6.11-.89-7.61-2q-61.57-45.37-122.78-90.91c-31.84-23.67-63.5-47.42-95.3-71.11-18.59-13.84-37.33-27.62-55.92-41.47-33.48-25-66.82-50-100.38-74.87-31.35-23.29-63-46.45-94.36-69.73-32.54-24.15-64.85-48.39-97.31-72.56q-31.44-23.41-63-46.76c-.78-.57-1.74-1.07-3.31-2-4.93,3.58-9.57,6.92-14.14,10.29q-41.29,30.59-82.54,61.2c-38.76,28.88-77.3,57.84-116.11,86.7-33.53,24.94-67.42,49.74-101,74.68-40.25,29.94-80.24,60-120.45,89.94-35.21,26.23-70.61,52.4-105.87,78.61q-45.34,33.69-90.61,67.43c-2.42,1.8-5.32,2.81-10.08,2.75-17.94-.22-35.9-.09-55.12-.09"/><rect class="cls-4" x="2.65" y="5.13" width="1916.75" height="1104.59"/><path class="cls-3" d="M772.09,683.91l572.53,425.53c-20.89,0-39.93,0-59-.08a9.37,9.37,0,0,1-4.74-1.65c-27.71-20.62-55.23-41.3-82.93-61.92q-45-33.45-90.14-66.81-52.44-38.84-104.94-77.63-49.2-36.48-98.23-73.05Q846.56,785,788.57,741.61c-5.27-3.93-10.75-7.77-16.54-11.94-8.28,6.06-16.16,11.78-23.93,17.55q-38.29,28.42-76.48,56.89c-22.52,16.8-44.84,33.67-67.41,50.45-27.89,20.73-56,41.39-83.92,62.11-25.13,18.64-50.14,37.32-75.27,56-22.74,16.88-45.58,33.72-68.32,50.6q-31.12,23.12-62.11,46.29-14.62,10.9-29.24,21.82c-7.39,5.5-14.74,11-22.32,16.44a10.53,10.53,0,0,1-5.19,1.58c-18.88.11-37.76.07-58.29.07L772.09,683.91"/><path class="cls-3" d="M323.16,1109.43,772.07,775.78l449,333.66c-16,0-30.31-.59-44.38.17-13.51.73-20.56-2.27-27.9-8.08-20.29-16-42.18-31.51-63.37-47.23-20.5-15.2-40.86-30.45-61.36-45.64-23.42-17.37-47-34.67-70.39-52-20.33-15.12-40.38-30.34-60.74-45.44-30.26-22.48-60.69-44.88-91-67.35-8.73-6.47-17.17-13.06-25.81-19.57a49.58,49.58,0,0,0-4.42-2.61c-8.88,6.59-17.46,13-26,19.32q-45.47,33.69-90.94,67.39c-31.67,23.56-63.18,47.18-94.85,70.74-29.71,22.09-59.59,44.12-89.32,66.2q-37.47,27.86-74.77,55.76c-3.16,2.36-6.26,4.74-9.57,7a7.41,7.41,0,0,1-3.67,1.29c-19.24.09-38.49.06-59.41.06"/><rect class="cls-4" x="2.65" y="5.13" width="1916.75" height="1104.59"/><path class="cls-3" d="M1097.43,1109.44c-20.8,0-39.67,0-58.53-.08a9.47,9.47,0,0,1-4.81-1.79q-46.83-34.52-93.48-69.1-34.15-25.31-68.3-50.63-31.3-23.24-62.48-46.53c-11.33-8.45-22.59-16.92-33.92-25.36-1-.79-2.37-1.46-4-2.46-8.17,6-16.07,11.67-23.81,17.43q-31.67,23.57-63.23,47.17t-63.39,47.1q-34.31,25.47-68.63,50.93c-14.13,10.51-28.15,21.05-42.4,31.5a11.44,11.44,0,0,1-5.73,1.74c-18.65.13-37.29.08-58,.08l325.31-241.8,325.35,241.8"/><path class="cls-3" d="M772,959.54l201.68,149.9H955.56c-12.28,0-24.57-.15-36.84.08-4.67.09-7.66-.82-10.14-2.68-20.26-15.15-40.55-30.28-60.68-45.47C842,1057,837,1052.24,831,1047.87c-13.11-9.62-26.59-19.09-39.87-28.65-6.3-4.54-12.45-9.13-19.1-14-12.24,9.09-24.08,17.9-35.93,26.69q-34.32,25.47-68.66,50.92-16.86,12.5-33.8,25a7.33,7.33,0,0,1-3.71,1.59c-19.24.1-38.47.07-59.58.07L772,959.54"/><path class="cls-3" d="M850.23,1109.44c-20.32,0-39.19.1-58.06-.12-2.42,0-5.28-1.54-7.08-2.74-4.38-2.91-8.25-6-12.9-9.51-5.39,3.86-10,7.36-15.06,10.68a12.3,12.3,0,0,1-5.8,1.62c-18,.12-35.93.07-56.42.07,5.33-4.23,9.55-7.9,14.36-11.32,7.54-5.37,15.9-10.41,23.16-15.88,12.23-9.22,23.87-18.68,35.77-28,1-.79,2.12-1.53,3.61-2.59l78.42,57.82"/><rect class="cls-4" x="2.65" y="5.13" width="1916.75" height="1104.59"/><rect class="cls-4" y="3.7" width="1922.04" height="1107.45"/></g></g></g></svg>