
<svg xmlns="http://www.w3.org/2000/svg" viewBox="0 0 60 59.42"><defs><style>.cls-1{fill:#fff;}</style></defs><title>Asset 4</title><g id="Layer_2" data-name="Layer 2"><g id="Layer_1-2" data-name="Layer 1"><path class="cls-1" d="M60,29.8a30,30,0,0,0-60,0A29.74,29.74,0,0,0,25,59.19l1.4.23V57l-1-.16A27.36,27.36,0,0,1,30,2.42a27.36,27.36,0,0,1,6.48,54l-.5.12v-26H24V33h9.54V59.42L35,59.19A29.74,29.74,0,0,0,60,29.8Z"/><path class="cls-1" d="M30,14.44a6.47,6.47,0,0,0-6.47,6.47A6.58,6.58,0,0,0,30,27.43a6.5,6.5,0,0,0,6.47-6.52A6.4,6.4,0,0,0,30,14.44ZM30,25a4.08,4.08,0,0,1,0-8.15,4,4,0,0,1,4,4.05A4.08,4.08,0,0,1,30,25Z"/></g></g></svg>
