<svg xmlns="http://www.w3.org/2000/svg" viewBox="0 0 1423.47 371.05"><defs><style>.cls-1{opacity:0.08;}.cls-2{fill:#375e77;}</style></defs><title>intra</title><g id="Layer_2" data-name="Layer 2"><g id="Stylesheet"><g class="cls-1"><polygon class="cls-2" points="526.17 0.36 526.17 308.7 578.18 369.25 578.18 0.36 526.17 0.36"/><polygon class="cls-2" points="0 368.29 51.83 369.25 51.83 75.7 0 0.13 0 368.29"/><polygon class="cls-2" points="126.91 0.36 403.94 368.28 403.94 288.57 192.52 0.36 126.91 0.36"/><path class="cls-2" d="M450.59.36c-17,9.72-33.53,22.83-46.65,39.36V.36Zm203.16,0c17,9.72,33.54,22.83,46.66,39.36V.36Z"/><path class="cls-2" d="M929.51,299.26c-5.16-21.92-8.72-43.61-14.79-56.52-19.61-41.7-61-44.17-103.09-48.89,21.4,10.43,41,32.87,46.39,59.36,4.81,23.46,7.57,48.25,19.07,69.85,21.59,40.54,61,43.44,103.28,48-31-3.34-42.86-37.84-50.86-71.79"/><path class="cls-2" d="M1423.47,338.12A30.52,30.52,0,1,1,1393,307.61a30.53,30.53,0,0,1,30.52,30.51"/><polygon class="cls-2" points="1102.1 368.64 1042.94 367.87 1248.68 0 1278.7 52.85 1102.1 368.64"/><path class="cls-2" d="M888.62,8A87,87,0,0,0,853,.36H801.38A96.69,96.69,0,0,1,859,174.72,87.28,87.28,0,0,0,888.62,8"/></g></g></g></svg>
