<svg xmlns="http://www.w3.org/2000/svg" viewBox="0 0 76.81 76.81"><defs><style>.cls-1{fill:#fff;}.cls-2{fill:#375e77;}</style></defs><title>white-chevron</title><g id="Layer_2" data-name="Layer 2"><g id="Stylesheet"><path class="cls-1" d="M76.81,38.4A38.41,38.41,0,1,1,38.4,0,38.41,38.41,0,0,1,76.81,38.4"/><path class="cls-2" d="M40.83,54.23C39.59,53,27.24,40.06,27.24,40.06a3.28,3.28,0,0,1,0-4.75s12.35-13,13.59-14.17a3.53,3.53,0,0,1,4.87,0,3.19,3.19,0,0,1,0,4.76L34.37,37.69,45.7,49.47a3.19,3.19,0,0,1,0,4.76A3.53,3.53,0,0,1,40.83,54.23Z"/></g></g></svg>